<svg xmlns="http://www.w3.org/2000/svg" viewBox="0 0 512 512" role="img" aria-label="Evidentia">
  <defs>
    <linearGradient id="evidentiaBlueMint" x1="128" x2="348" y1="112" y2="318" gradientUnits="userSpaceOnUse">
      <stop offset="0" stop-color="#8dffe6"/>
      <stop offset="1" stop-color="#76a7ff"/>
    </linearGradient>
    <linearGradient id="evidentiaViolet" x1="316" x2="232" y1="132" y2="260" gradientUnits="userSpaceOnUse">
      <stop offset="0" stop-color="#ef84ff"/>
      <stop offset="1" stop-color="#b56cff"/>
    </linearGradient>
    <filter id="evidentiaGlow" x="-45%" y="-45%" width="190%" height="190%" color-interpolation-filters="sRGB">
      <feGaussianBlur in="SourceGraphic" stdDeviation="10" result="blur"/>
      <feColorMatrix in="blur" type="matrix" values="0 0 0 0 0.72 0 0 0 0 0.38 0 0 0 0 1 0 0 0 .72 0" result="glow"/>
      <feMerge>
        <feMergeNode in="glow"/>
        <feMergeNode in="SourceGraphic"/>
      </feMerge>
    </filter>
    <filter id="tileShadow" x="-20%" y="-20%" width="140%" height="140%">
      <feDropShadow dx="0" dy="18" stdDeviation="22" flood-color="#000000" flood-opacity=".42"/>
    </filter>
  </defs>

  <rect width="512" height="512" rx="112" fill="#050607"/>
  <path d="M0 300C96 236 128 96 242 96c84 0 119 64 180 37 30-13 54-42 90-42v421H0Z" fill="#071014" opacity=".72"/>
  <circle cx="418" cy="96" r="84" fill="#152338" opacity=".38"/>
  <circle cx="106" cy="420" r="126" fill="#101433" opacity=".34"/>

  <rect x="112" y="112" width="288" height="288" rx="74" fill="#07090b" stroke="#23313b" stroke-width="10" filter="url(#tileShadow)"/>
  <rect x="127" y="127" width="258" height="258" rx="62" fill="none" stroke="#142029" stroke-width="4"/>

  <path d="M176 256h120" stroke="url(#evidentiaBlueMint)" stroke-width="34" stroke-linecap="round"/>
  <path d="M176 190h135" stroke="url(#evidentiaBlueMint)" stroke-width="34" stroke-linecap="round"/>
  <path d="M176 322h135" stroke="url(#evidentiaBlueMint)" stroke-width="34" stroke-linecap="round"/>
  <path d="M318 176 248 256l70 80" fill="none" stroke="url(#evidentiaViolet)" stroke-width="32" stroke-linecap="round" stroke-linejoin="round" filter="url(#evidentiaGlow)"/>
</svg>
